<?xml version="1.0" encoding="UTF-8" standalone="no"?>
<svg
   version="1.1"
   id="svg1"
   width="72"
   height="72"
   viewBox="0 0 199 199"
   xmlns="http://www.w3.org/2000/svg"
   xmlns:svg="http://www.w3.org/2000/svg">
  <defs
     id="defs1">
    <clipPath
       clipPathUnits="userSpaceOnUse"
       id="clipPath17">
      <path
         style="display:inline;fill:#f6f3e5;fill-opacity:1"
         id="path17"
         width="72"
         height="63"
         x="187"
         y="158"
         d="m 194,158 h 58 a 7.0000019,7.0000019 45 0 1 7,7 v 56 h -72 v -56 a 7.0000007,7.0000007 135 0 1 7,-7 z" />
    </clipPath>
    <clipPath
       clipPathUnits="userSpaceOnUse"
       id="clipPath19">
      <path
         style="display:inline;fill:#f6f3e5;fill-opacity:1"
         id="path19"
         width="72"
         height="63"
         x="187"
         y="158"
         d="m 194,158 h 58 a 7.0000019,7.0000019 45 0 1 7,7 v 56 h -72 v -56 a 7.0000007,7.0000007 135 0 1 7,-7 z" />
    </clipPath>
    <clipPath
       clipPathUnits="userSpaceOnUse"
       id="clipPath22">
      <circle
         style="display:inline;fill:#fcfcfc;fill-opacity:1;stroke-width:1.00496"
         id="circle22"
         cx="223"
         cy="119"
         r="37"
         transform="rotate(41.625228)" />
    </clipPath>
    <clipPath
       clipPathUnits="userSpaceOnUse"
       id="clipPath25">
      <path
         style="display:inline;fill:#f6f3e5;fill-opacity:1"
         id="path25"
         width="72"
         height="63"
         x="187"
         y="158"
         d="m 194,158 h 58 a 7.0000019,7.0000019 45 0 1 7,7 v 56 h -72 v -56 a 7.0000007,7.0000007 135 0 1 7,-7 z"
         transform="translate(-5.4390911,-1.6227133)" />
    </clipPath>
    <clipPath
       clipPathUnits="userSpaceOnUse"
       id="clipPath26">
      <circle
         style="display:inline;fill:#d01e57;fill-opacity:1;stroke-width:1.19079"
         id="circle27"
         cx="223.5"
         cy="155.5"
         r="64.5" />
    </clipPath>
    <clipPath
       clipPathUnits="userSpaceOnUse"
       id="clipPath35">
      <circle
         style="display:inline;fill:#c10042;fill-opacity:1;stroke-width:1.19079"
         id="circle35"
         clip-path="none"
         cx="223.5"
         cy="155.5"
         r="64.5" />
    </clipPath>
    <clipPath
       clipPathUnits="userSpaceOnUse"
       id="clipPath3">
      <circle
         style="display:inline;fill:#393454;fill-opacity:1;stroke-width:1.59694"
         id="circle3"
         cx="222.5"
         cy="155.5"
         r="86.5" />
    </clipPath>
  </defs>
  <g
     id="g1">
    <g
       id="g23"
       style="display:inline"
       transform="translate(-123,-56)">
      <circle
         style="display:inline;fill:#393454;fill-opacity:1;stroke-width:1.59694"
         id="path1"
         cx="222.5"
         cy="155.5"
         r="86.5" />
      <path
         style="display:inline;fill:#332f4d;fill-opacity:1"
         d="M 274.37842,195.14387 321.12721,236.11249 244.98334,267.6035 187,208.68639 Z"
         id="path28"
         clip-path="url(#clipPath3)" />
    </g>
    <g
       id="g35"
       clip-path="url(#clipPath35)"
       transform="translate(-123,-56)"
       style="display:inline">
      <g
         id="g36">
        <circle
           style="display:inline;fill:#c10042;fill-opacity:1;stroke-width:1.19079"
           id="circle2"
           clip-path="none"
           cx="223.5"
           cy="155.5"
           r="64.5" />
        <circle
           style="display:inline;fill:#d01e57;fill-opacity:1;stroke-width:1.19079"
           id="circle1"
           cx="229.5"
           cy="161.5"
           r="64.5" />
      </g>
      <circle
         style="fill:#c10042;fill-opacity:1;stroke-width:1.00496"
         id="path5"
         cx="228"
         cy="122"
         r="37"
         clip-path="url(#clipPath26)" />
      <g
         id="g19"
         clip-path="none">
        <path
           style="display:inline;fill:#c10042;fill-opacity:1"
           id="path27"
           width="72"
           height="63"
           x="187"
           y="158"
           d="m 194,158 h 58 a 7.0000019,7.0000019 45 0 1 7,7 v 56 h -72 v -56 a 7.0000007,7.0000007 135 0 1 7,-7 z"
           transform="translate(4,4)" />
        <path
           style="display:inline;fill:#f6f3e5;fill-opacity:1"
           id="rect11"
           width="72"
           height="63"
           x="187"
           y="158"
           d="m 194,158 h 58 a 7.0000019,7.0000019 45 0 1 7,7 v 56 h -72 v -56 a 7.0000007,7.0000007 135 0 1 7,-7 z" />
        <path
           style="display:inline;opacity:1;fill:#b5b4b7;fill-opacity:1"
           d="m 263.25,162 -65,64 -8.5,-8 65,-64 z"
           id="path13"
           clip-path="url(#clipPath25)"
           transform="translate(5.4390911,1.6227133)" />
        <path
           style="display:inline;opacity:1;fill:#ddb799;fill-opacity:1"
           d="m 263.25,162 -65,64 -8.5,-8 65,-64 z"
           id="path23"
           clip-path="url(#clipPath19)" />
        <path
           style="display:inline;opacity:1;fill:#ddb799;fill-opacity:1"
           d="m 183.5,163 65,64 8.5,-8 -65,-64 z"
           id="path12"
           clip-path="url(#clipPath17)" />
      </g>
    </g>
    <circle
       style="display:inline;fill:#fcfcfc;fill-opacity:1;stroke-width:1.00496"
       id="circle25"
       cx="100"
       cy="63"
       r="37" />
    <g
       id="g22"
       style="display:inline"
       transform="translate(-123,-56)">
      <rect
         style="display:inline;fill:#e7e7e7;fill-opacity:1;stroke-width:2.84734"
         id="rect10"
         width="76.878059"
         height="32.020256"
         x="49.515129"
         y="203.59206"
         transform="rotate(-41.625228)"
         clip-path="url(#clipPath22)" />
      <path
         style="display:inline;fill:#5b5f80;fill-opacity:1"
         d="M 173,61.000001 189,141 249,88.000001 Z"
         id="path6" />
      <path
         style="display:inline;fill:#454967;fill-opacity:1"
         d="M 173,61.000001 220.87945,112.83982 189,141 Z"
         id="path7" />
    </g>
    <g
       id="g10"
       transform="matrix(1.7996186,-1.563653,1.5510776,1.7852491,-49.898753,118.05154)"
       style="display:inline;opacity:1">
      <path
         style="fill:#000000;fill-opacity:1"
         d="m 50,25 h 26 v 2 h -1 v 1 h -1 v 1 h -1 v 1 h -7 v -1 h -1 v -1 h -1 v -2 h -2 v 2 h -1 v 1 h -1 v 1 h -7 v -1 h -1 v -1 h -1 v -1 h -1 z"
         id="path8" />
      <path
         style="fill:#ffffff;fill-opacity:1"
         d="m 52,26 h 1 v 1 h 1 v 1 h 1 v -1 h -1 v -1 h 1 v 1 h 1 v 1 h 1 v 1 h -1 v -1 h -1 v 1 h -1 v -1 h -1 v -1 h -1 z"
         id="path9" />
      <path
         style="fill:#ffffff;fill-opacity:1"
         d="m 66,26 h 1 v 1 h 1 v 1 h 1 v -1 h -1 v -1 h 1 v 1 h 1 v 1 h 1 v 1 h -1 v -1 h -1 v 1 h -1 v -1 h -1 v -1 h -1 z"
         id="path10" />
    </g>
  </g>
</svg>
